,
.   http://www.scenetime.com/signup.php  ---&gt;  Hottest scene tracker on the net !!!  

    Join Now   http://www.scenetime.com/signup.php

    seed back for speed


 



...................................NFO:.................................................[IMG]http://img27.imageshack.us/img27/361/111111iv.jpg[/IMG]



[color=blue][size=5][b]11-11-11.2011.DVDRip.XVID.AC3.UNE-CM8[/b][/size][/color]


[b]CM8 Doing It Right The First Time :D


Source: DVD5 Thx


Video: 720x304 @bitrate 1497 2pass
Audio: English AC3 5.1 @448 Kbps[/b]


[url]http://www.imdb.com/title/tt1712159/[/url]


General

Format                           : AVI
Format/Info                      : Audio Video Interleave
Format profile                   : OpenDML
File size                        : 1.27 GiB
Duration                         : 1h 33mn
Overall bit rate                 : 1 950 Kbps
Writing library                  : MPlayer

Video
ID                               : 0
Format                           : MPEG-4 Visual
Format profile                   : Advanced Simple@L5
Format settings, BVOP            : No
Format settings, QPel            : No
Format settings, GMC             : No warppoints
Format settings, Matrix          : Custom
Codec ID                         : XVID
Codec ID/Hint                    : XviD
Duration                         : 1h 33mn
Bit rate                         : 1 497 Kbps
Width                            : 720 pixels
Height                           : 304 pixels
Display aspect ratio             : 2.35:1
Frame rate                       : 25.000 fps
Color space                      : YUV
Chroma subsampling               : 4:2:0
Bit depth                        : 8 bits
Scan type                        : Progressive
Compression mode                 : Lossy
Bits/(Pixel*Frame)               : 0.273
Stream size                      : 997 MiB (77%)
Writing library                  : XviD 1.2.1 (UTC 2008-12-04)

Audio
ID                               : 1
Format                           : AC-3
Format/Info                      : Audio Coding 3
Mode extension                   : CM (complete main)
Codec ID                         : 2000
Duration                         : 1h 32mn
Bit rate mode                    : Constant
Bit rate                         : 448 Kbps
Channel(s)                       : 6 channels
Channel positions                : Front: L C R, Side: L R, LFE
Sampling rate                    : 48.0 KHz
Bit depth                        : 16 bits
Compression mode                 : Lossy
Stream size                      : 298 MiB (23%)
Alignment                        : Split accross interleaves
Interleave, duration             : 501 ms (12.53 video frames)
Interleave, preload duration     : 500 ms




Plot:

After his death of his wife and child, an author travels to Barcelona to see his 
estranged brother and dying father, where he learns that his life is plagued by events that occur on 11/11/11. 

Cast:

Timothy Gibbs	... 	Joseph Crone
Michael Landes	... 	Samuel
Denis Rafter	... 	Richard Crone
Wendy Glenn	... 	Sadie

[img]http://img23.imageshack.us/img23/4548/vlcsnap2011110512h56m31.png[/img]
[img]http://img197.imageshack.us/img197/5161/vlcsnap2011110512h56m54.png[/img]
[img]http://img703.imageshack.us/img703/3057/vlcsnap2011110512h57m48.png[/img]
[img]http://img593.imageshack.us/img593/8471/vlcsnap2011110512h58m03.png[/img]




Greetz

ViSiON,SPK,SiC,SANTi,3LT0N,FUSiON,YanKeeS,MAGNET,THC,T0XiC,LKRG,FANTASIA-PLAY,FANTASIA-M,FLAWL3SS,
WBZ,ZMG,BHRG,NOVA,D2U,Vik,Rapeseed,SAFC,goldadvance,MEMORY100,KaN1vE,Unevano,Pinnz,Wayne
Mr Hive,and all P2P groups
Great Work Guys :D

LOOKING FOR ANYTHING YOU WANT TO LOOK AND SOUND BETTER

CM8@hushmail.com